<svg width="20" height="20" viewBox="0 0 20 20" fill="none" xmlns="http://www.w3.org/2000/svg">
<path d="M16.6667 7.99998C16.6667 4.66665 15.3333 3.33331 12 3.33331H8C4.66666 3.33331 3.33333 4.66665 3.33333 7.99998V12C3.33333 15.3333 4.66666 16.6666 8 16.6666" stroke="white" stroke-width="1.5" stroke-linecap="round" stroke-linejoin="round"/>
<path d="M13.625 6.66665C13.1667 6.08331 12.4 5.83331 11.25 5.83331H8.74999C6.66666 5.83331 5.83333 6.66665 5.83333 8.74998V11.25C5.83333 12.4 6.08333 13.1666 6.65833 13.625" stroke="white" stroke-width="1.5" stroke-linecap="round" stroke-linejoin="round"/>
<path opacity="0.4" d="M6.675 3.33335V1.66669" stroke="white" stroke-width="1.5" stroke-linecap="round" stroke-linejoin="round"/>
<path opacity="0.4" d="M10 3.33335V1.66669" stroke="white" stroke-width="1.5" stroke-linecap="round" stroke-linejoin="round"/>
<path opacity="0.4" d="M13.3333 3.33335V1.66669" stroke="white" stroke-width="1.5" stroke-linecap="round" stroke-linejoin="round"/>
<path opacity="0.4" d="M16.6667 6.66669H18.3333" stroke="#292D32" stroke-width="1.5" stroke-linecap="round" stroke-linejoin="round"/>
<path opacity="0.4" d="M6.675 16.6667V18.3334" stroke="#292D32" stroke-width="1.5" stroke-linecap="round" stroke-linejoin="round"/>
<path opacity="0.4" d="M1.66667 6.66669H3.33334" stroke="#292D32" stroke-width="1.5" stroke-linecap="round" stroke-linejoin="round"/>
<path opacity="0.4" d="M1.66667 10H3.33334" stroke="#292D32" stroke-width="1.5" stroke-linecap="round" stroke-linejoin="round"/>
<path opacity="0.4" d="M1.66667 13.3333H3.33334" stroke="#292D32" stroke-width="1.5" stroke-linecap="round" stroke-linejoin="round"/>
<path opacity="0.4" d="M13.925 15.4917C14.6568 15.4917 15.25 14.8985 15.25 14.1667C15.25 13.4349 14.6568 12.8417 13.925 12.8417C13.1932 12.8417 12.6 13.4349 12.6 14.1667C12.6 14.8985 13.1932 15.4917 13.925 15.4917Z" stroke="#292D32" stroke-width="1.5" stroke-miterlimit="10" stroke-linecap="round" stroke-linejoin="round"/>
<path d="M9.50833 14.55V13.775C9.50833 13.3167 9.88333 12.9417 10.3417 12.9417C11.1417 12.9417 11.4667 12.375 11.0667 11.6834C10.8333 11.2834 10.975 10.7667 11.375 10.5417L12.1333 10.1C12.4833 9.89169 12.9333 10.0167 13.1417 10.3667L13.1917 10.45C13.5917 11.1417 14.2417 11.1417 14.6417 10.45L14.6917 10.3667C14.9 10.0167 15.35 9.90002 15.7 10.1L16.4583 10.5417C16.8583 10.775 17 11.2834 16.7667 11.6834C16.3667 12.375 16.6917 12.9417 17.4917 12.9417C17.95 12.9417 18.325 13.3167 18.325 13.775V14.55C18.325 15.0084 17.95 15.3834 17.4917 15.3834C16.6917 15.3834 16.3667 15.95 16.7667 16.6417C17 17.0417 16.8583 17.5584 16.4583 17.7834L15.7 18.225C15.35 18.4334 14.9 18.3084 14.6917 17.9584L14.6417 17.875C14.2417 17.1834 13.5917 17.1834 13.1917 17.875L13.1417 17.9584C12.9333 18.3084 12.4833 18.425 12.1333 18.225L11.375 17.7834C10.975 17.55 10.8333 17.0417 11.0667 16.6417C11.4667 15.95 11.1417 15.3834 10.3417 15.3834C9.88333 15.3917 9.50833 15.0167 9.50833 14.55Z" stroke="#292D32" stroke-width="1.5" stroke-miterlimit="10" stroke-linecap="round" stroke-linejoin="round"/>
</svg>
