<svg width="20" height="20" viewBox="0 0 20 20" fill="none" xmlns="http://www.w3.org/2000/svg">
<path d="M18.3333 6.89167V3.52501C18.3333 2.20001 17.8 1.66667 16.475 1.66667H13.1083C11.7833 1.66667 11.25 2.20001 11.25 3.52501V6.89167C11.25 8.21667 11.7833 8.75001 13.1083 8.75001H16.475C17.8 8.75001 18.3333 8.21667 18.3333 6.89167Z" stroke="white" stroke-width="1.5" stroke-linecap="round" stroke-linejoin="round"/>
<path d="M8.75001 7.10001V3.31667C8.75001 2.14167 8.21667 1.66667 6.89167 1.66667H3.52501C2.20001 1.66667 1.66667 2.14167 1.66667 3.31667V7.09167C1.66667 8.27501 2.20001 8.74167 3.52501 8.74167H6.89167C8.21667 8.75 8.75001 8.27501 8.75001 7.10001Z" stroke="white" stroke-width="1.5" stroke-linecap="round" stroke-linejoin="round"/>
<path d="M8.75001 16.475V13.1083C8.75001 11.7833 8.21667 11.25 6.89167 11.25H3.52501C2.20001 11.25 1.66667 11.7833 1.66667 13.1083V16.475C1.66667 17.8 2.20001 18.3333 3.52501 18.3333H6.89167C8.21667 18.3333 8.75001 17.8 8.75001 16.475Z" stroke="white" stroke-width="1.5" stroke-linecap="round" stroke-linejoin="round"/>
<path opacity="0.4" d="M12.5 12.9167H17.5" stroke="white" stroke-width="1.5" stroke-linecap="round"/>
<path opacity="0.4" d="M12.5 16.25H17.5" stroke="white" stroke-width="1.5" stroke-linecap="round"/>
</svg>
