<svg width="41" height="39" viewBox="0 0 41 39" fill="none" xmlns="http://www.w3.org/2000/svg">
<rect width="41" height="39" rx="6" fill="#FBEFEF"/>
<path d="M21 20.75C17.83 20.75 15.25 18.17 15.25 15C15.25 11.83 17.83 9.25 21 9.25C24.17 9.25 26.75 11.83 26.75 15C26.75 18.17 24.17 20.75 21 20.75ZM21 10.75C18.66 10.75 16.75 12.66 16.75 15C16.75 17.34 18.66 19.25 21 19.25C23.34 19.25 25.25 17.34 25.25 15C25.25 12.66 23.34 10.75 21 10.75Z" fill="#B43C3C"/>
<path d="M29.5901 30.75C29.1801 30.75 28.8401 30.41 28.8401 30C28.8401 26.55 25.3202 23.75 21.0002 23.75C16.6802 23.75 13.1602 26.55 13.1602 30C13.1602 30.41 12.8202 30.75 12.4102 30.75C12.0002 30.75 11.6602 30.41 11.6602 30C11.6602 25.73 15.8502 22.25 21.0002 22.25C26.1502 22.25 30.3401 25.73 30.3401 30C30.3401 30.41 30.0001 30.75 29.5901 30.75Z" fill="#B43C3C"/>
</svg>
