<svg width="20" height="20" viewBox="0 0 20 20" fill="none" xmlns="http://www.w3.org/2000/svg">
<path d="M14.1667 7.50002C14.1667 10.725 11.3667 13.3334 7.91667 13.3334L7.14168 14.2667L6.68334 14.8167C6.29168 15.2834 5.54167 15.1833 5.28334 14.625L4.16667 12.1667C2.65001 11.1 1.66667 9.40835 1.66667 7.50002C1.66667 4.27502 4.46667 1.66669 7.91667 1.66669C10.4333 1.66669 12.6083 3.05836 13.5833 5.05836C13.9583 5.80003 14.1667 6.62502 14.1667 7.50002Z" stroke="white" stroke-width="1.5" stroke-linecap="round" stroke-linejoin="round"/>
<path opacity="0.4" d="M18.3333 10.7167C18.3333 12.625 17.35 14.3167 15.8333 15.3834L14.7167 17.8417C14.4583 18.4 13.7083 18.5084 13.3167 18.0334L12.0833 16.55C10.0667 16.55 8.26668 15.6583 7.14168 14.2667L7.91667 13.3333C11.3667 13.3333 14.1667 10.725 14.1667 7.50001C14.1667 6.62501 13.9583 5.80002 13.5833 5.05835C16.3083 5.68335 18.3333 7.98333 18.3333 10.7167Z" stroke="white" stroke-width="1.5" stroke-linecap="round" stroke-linejoin="round"/>
<path opacity="0.4" d="M5.83333 7.5H9.99999" stroke="white" stroke-width="1.5" stroke-linecap="round" stroke-linejoin="round"/>
</svg>
