<svg width="20" height="20" viewBox="0 0 20 20" fill="none" xmlns="http://www.w3.org/2000/svg">
<path d="M16.6667 6.87502V15C16.6667 17.5 15.175 18.3334 13.3333 18.3334H6.66666C4.82499 18.3334 3.33333 17.5 3.33333 15V6.87502C3.33333 4.16669 4.82499 3.54169 6.66666 3.54169C6.66666 4.05835 6.87497 4.52502 7.21664 4.86668C7.55831 5.20835 8.02499 5.41669 8.54166 5.41669H11.4583C12.4917 5.41669 13.3333 4.57502 13.3333 3.54169C15.175 3.54169 16.6667 4.16669 16.6667 6.87502Z" stroke="white" stroke-width="1.5" stroke-linecap="round" stroke-linejoin="round"/>
<path d="M13.3333 3.54169C13.3333 4.57502 12.4917 5.41669 11.4583 5.41669H8.54167C8.02501 5.41669 7.55832 5.20835 7.21665 4.86668C6.87498 4.52502 6.66667 4.05835 6.66667 3.54169C6.66667 2.50835 7.50834 1.66669 8.54167 1.66669H11.4583C11.975 1.66669 12.4417 1.87502 12.7834 2.21669C13.125 2.55836 13.3333 3.02502 13.3333 3.54169Z" stroke="white" stroke-width="1.5" stroke-linecap="round" stroke-linejoin="round"/>
<path opacity="0.4" d="M6.66667 10.8333H10" stroke="white" stroke-width="1.5" stroke-linecap="round" stroke-linejoin="round"/>
<path opacity="0.4" d="M6.66667 14.1667H13.3333" stroke="white" stroke-width="1.5" stroke-linecap="round" stroke-linejoin="round"/>
</svg>
