<svg width="20" height="20" viewBox="0 0 20 20" fill="none" xmlns="http://www.w3.org/2000/svg">
<path opacity="0.4" d="M14.998 5.96666C14.948 5.95833 14.8897 5.95833 14.8397 5.96666C13.6897 5.92499 12.773 4.98332 12.773 3.81666C12.773 2.62499 13.7314 1.66666 14.923 1.66666C16.1147 1.66666 17.073 2.63332 17.073 3.81666C17.0647 4.98332 16.148 5.92499 14.998 5.96666Z" stroke="white" stroke-width="1.5" stroke-linecap="round" stroke-linejoin="round"/>
<path opacity="0.4" d="M14.1396 12.0333C15.2812 12.225 16.5396 12.025 17.4229 11.4333C18.5979 10.65 18.5979 9.36667 17.4229 8.58334C16.5312 7.99167 15.2562 7.79166 14.1146 7.99166" stroke="white" stroke-width="1.5" stroke-linecap="round" stroke-linejoin="round"/>
<path opacity="0.4" d="M4.97292 5.96666C5.02292 5.95833 5.08125 5.95833 5.13125 5.96666C6.28125 5.92499 7.19792 4.98332 7.19792 3.81666C7.19792 2.62499 6.23959 1.66666 5.04792 1.66666C3.85625 1.66666 2.89792 2.63332 2.89792 3.81666C2.90625 4.98332 3.82292 5.92499 4.97292 5.96666Z" stroke="white" stroke-width="1.5" stroke-linecap="round" stroke-linejoin="round"/>
<path opacity="0.4" d="M5.83125 12.0333C4.68959 12.225 3.43126 12.025 2.54792 11.4333C1.37292 10.65 1.37292 9.36667 2.54792 8.58334C3.43959 7.99167 4.71459 7.79166 5.85625 7.99166" stroke="white" stroke-width="1.5" stroke-linecap="round" stroke-linejoin="round"/>
<path d="M10 12.1917C9.95001 12.1833 9.89168 12.1833 9.84168 12.1917C8.69168 12.15 7.77501 11.2083 7.77501 10.0417C7.77501 8.85 8.73334 7.89166 9.92501 7.89166C11.1167 7.89166 12.075 8.85833 12.075 10.0417C12.0667 11.2083 11.15 12.1583 10 12.1917Z" stroke="white" stroke-width="1.5" stroke-linecap="round" stroke-linejoin="round"/>
<path d="M7.57501 14.8167C6.40001 15.6 6.40001 16.8833 7.57501 17.6667C8.90834 18.5583 11.0917 18.5583 12.425 17.6667C13.6 16.8833 13.6 15.6 12.425 14.8167C11.1 13.9333 8.90834 13.9333 7.57501 14.8167Z" stroke="#292D32" stroke-width="1.5" stroke-linecap="round" stroke-linejoin="round"/>
</svg>
