<svg width="41" height="39" viewBox="0 0 41 39" fill="none" xmlns="http://www.w3.org/2000/svg">
<rect width="41" height="39" rx="6" fill="#DFE6E7"/>
<path d="M21 20.75C17.83 20.75 15.25 18.17 15.25 15C15.25 11.83 17.83 9.25 21 9.25C24.17 9.25 26.75 11.83 26.75 15C26.75 18.17 24.17 20.75 21 20.75ZM21 10.75C18.66 10.75 16.75 12.66 16.75 15C16.75 17.34 18.66 19.25 21 19.25C23.34 19.25 25.25 17.34 25.25 15C25.25 12.66 23.34 10.75 21 10.75Z" fill="#48A848"/>
<path d="M24.8201 30.75C24.4401 30.75 24.0801 30.61 23.8201 30.35C23.5101 30.04 23.3701 29.59 23.4401 29.12L23.6301 27.77C23.6801 27.42 23.8901 27.01 24.1401 26.75L27.68 23.21C29.1 21.79 30.3501 22.6 30.9601 23.21C31.4801 23.73 31.7501 24.29 31.7501 24.85C31.7501 25.42 31.4901 25.95 30.9601 26.48L27.42 30.02C27.17 30.27 26.7501 30.48 26.4001 30.53L25.05 30.72C24.97 30.74 24.9001 30.75 24.8201 30.75ZM29.31 23.92C29.13 23.92 28.97 24.04 28.74 24.27L25.2001 27.81C25.1701 27.84 25.12 27.94 25.12 27.98L24.9401 29.23L26.1901 29.05C26.2301 29.04 26.33 28.99 26.36 28.96L29.9001 25.42C30.0601 25.26 30.2501 25.03 30.2501 24.85C30.2501 24.7 30.1301 24.49 29.9001 24.27C29.6601 24.03 29.48 23.92 29.31 23.92Z" fill="#48A848"/>
<path d="M29.9201 27.22C29.8501 27.22 29.7801 27.21 29.7201 27.19C28.4001 26.82 27.3501 25.77 26.9801 24.45C26.8701 24.05 27.1001 23.64 27.5001 23.53C27.9001 23.42 28.3101 23.65 28.4201 24.05C28.6501 24.87 29.3001 25.52 30.1201 25.75C30.5201 25.86 30.7501 26.28 30.6401 26.67C30.5501 27 30.2501 27.22 29.9201 27.22Z" fill="#48A848"/>
<path d="M12.4102 30.75C12.0002 30.75 11.6602 30.41 11.6602 30C11.6602 25.73 15.8502 22.25 21.0002 22.25C22.0902 22.25 23.1702 22.41 24.1802 22.71C24.5802 22.83 24.8002 23.25 24.6802 23.64C24.5602 24.04 24.1402 24.26 23.7502 24.14C22.8702 23.88 21.9502 23.74 21.0002 23.74C16.6802 23.74 13.1602 26.54 13.1602 29.99C13.1602 30.41 12.8202 30.75 12.4102 30.75Z" fill="#48A848"/>
</svg>
