<svg width="41" height="39" viewBox="0 0 41 39" fill="none" xmlns="http://www.w3.org/2000/svg">
<rect width="41" height="39" rx="6" fill="#F2EDFD"/>
<path d="M18.1596 19.62C18.1296 19.62 18.1096 19.62 18.0796 19.62C18.0296 19.61 17.9596 19.61 17.8996 19.62C14.9996 19.53 12.8096 17.25 12.8096 14.44C12.8096 11.58 15.1396 9.25 17.9996 9.25C20.8596 9.25 23.1896 11.58 23.1896 14.44C23.1796 17.25 20.9796 19.53 18.1896 19.62C18.1796 19.62 18.1696 19.62 18.1596 19.62ZM17.9996 10.75C15.9696 10.75 14.3096 12.41 14.3096 14.44C14.3096 16.44 15.8696 18.05 17.8596 18.12C17.9196 18.11 18.0496 18.11 18.1796 18.12C20.1396 18.03 21.6796 16.42 21.6896 14.44C21.6896 12.41 20.0296 10.75 17.9996 10.75Z" fill="#5818D8"/>
<path d="M25.5396 19.75C25.5096 19.75 25.4796 19.75 25.4496 19.74C25.0396 19.78 24.6196 19.49 24.5796 19.08C24.5396 18.67 24.7896 18.3 25.1996 18.25C25.3196 18.24 25.4496 18.24 25.5596 18.24C27.0196 18.16 28.1596 16.96 28.1596 15.49C28.1596 13.97 26.9296 12.74 25.4096 12.74C24.9996 12.75 24.6596 12.41 24.6596 12C24.6596 11.59 24.9996 11.25 25.4096 11.25C27.7496 11.25 29.6596 13.16 29.6596 15.5C29.6596 17.8 27.8596 19.66 25.5696 19.75C25.5596 19.75 25.5496 19.75 25.5396 19.75Z" fill="#5818D8"/>
<path d="M18.1696 30.55C16.2096 30.55 14.2396 30.05 12.7496 29.05C11.3596 28.13 10.5996 26.87 10.5996 25.5C10.5996 24.13 11.3596 22.86 12.7496 21.93C15.7496 19.94 20.6096 19.94 23.5896 21.93C24.9696 22.85 25.7396 24.11 25.7396 25.48C25.7396 26.85 24.9796 28.12 23.5896 29.05C22.0896 30.05 20.1296 30.55 18.1696 30.55ZM13.5796 23.19C12.6196 23.83 12.0996 24.65 12.0996 25.51C12.0996 26.36 12.6296 27.18 13.5796 27.81C16.0696 29.48 20.2696 29.48 22.7596 27.81C23.7196 27.17 24.2396 26.35 24.2396 25.49C24.2396 24.64 23.7096 23.82 22.7596 23.19C20.2696 21.53 16.0696 21.53 13.5796 23.19Z" fill="#5818D8"/>
<path d="M27.3396 28.75C26.9896 28.75 26.6796 28.51 26.6096 28.15C26.5296 27.74 26.7896 27.35 27.1896 27.26C27.8196 27.13 28.3996 26.88 28.8496 26.53C29.4196 26.1 29.7296 25.56 29.7296 24.99C29.7296 24.42 29.4196 23.88 28.8596 23.46C28.4196 23.12 27.8696 22.88 27.2196 22.73C26.8196 22.64 26.5596 22.24 26.6496 21.83C26.7396 21.43 27.1396 21.17 27.5496 21.26C28.4096 21.45 29.1596 21.79 29.7696 22.26C30.6996 22.96 31.2296 23.95 31.2296 24.99C31.2296 26.03 30.6896 27.02 29.7596 27.73C29.1396 28.21 28.3596 28.56 27.4996 28.73C27.4396 28.75 27.3896 28.75 27.3396 28.75Z" fill="#5818D8"/>
</svg>
