<svg width="20" height="20" viewBox="0 0 20 20" fill="none" xmlns="http://www.w3.org/2000/svg">
<g opacity="0.4">
<path d="M11.8848 12.8654H7.71809" stroke="white" stroke-width="1.5" stroke-miterlimit="10" stroke-linecap="round" stroke-linejoin="round"/>
<path d="M9.80144 10.8317V14.9984" stroke="white" stroke-width="1.5" stroke-miterlimit="10" stroke-linecap="round" stroke-linejoin="round"/>
</g>
<path d="M10.55 2.09844L10.525 2.15677L8.10833 7.7651H5.73333C5.16666 7.7651 4.625 7.88177 4.13333 8.0901L5.59166 4.60677L5.625 4.52344L5.68333 4.3901C5.7 4.3401 5.71666 4.2901 5.74166 4.24844C6.83333 1.72344 8.06666 1.14844 10.55 2.09844Z" stroke="white" stroke-width="1.5" stroke-linecap="round" stroke-linejoin="round"/>
<path d="M15.0417 7.93178C14.6667 7.81512 14.2667 7.76512 13.8667 7.76512H8.10834L10.525 2.15678L10.55 2.09845C10.675 2.14012 10.7917 2.19845 10.9167 2.24845L12.7583 3.02345C13.7833 3.44845 14.5 3.89012 14.9333 4.42345C15.0167 4.52345 15.0833 4.61512 15.1417 4.72345C15.2167 4.84012 15.275 4.95678 15.3083 5.08178C15.3417 5.15678 15.3667 5.23178 15.3833 5.29845C15.6083 5.99845 15.475 6.85678 15.0417 7.93178Z" stroke="white" stroke-width="1.5" stroke-linecap="round" stroke-linejoin="round"/>
<path d="M17.9348 11.832V13.457C17.9348 13.6237 17.9264 13.7903 17.9181 13.957C17.7598 16.8653 16.1348 18.332 13.0514 18.332H6.55144C6.35144 18.332 6.15144 18.3153 5.95977 18.2903C3.30977 18.1153 1.8931 16.6987 1.7181 14.0487C1.6931 13.857 1.67644 13.657 1.67644 13.457V11.832C1.67644 10.157 2.6931 8.71532 4.1431 8.09032C4.6431 7.88199 5.17644 7.76532 5.7431 7.76532H13.8764C14.2848 7.76532 14.6848 7.82365 15.0514 7.93199C16.7098 8.44032 17.9348 9.99032 17.9348 11.832Z" stroke="white" stroke-width="1.5" stroke-linecap="round" stroke-linejoin="round"/>
<path opacity="0.4" d="M5.59167 4.60678L4.13334 8.09011C2.68334 8.71511 1.66667 10.1568 1.66667 11.8318V9.39011C1.66667 7.02345 3.35001 5.04845 5.59167 4.60678Z" stroke="#292D32" stroke-width="1.5" stroke-linecap="round" stroke-linejoin="round"/>
<path opacity="0.4" d="M17.9322 9.38969V11.8314C17.9322 9.99803 16.7155 8.43969 15.0488 7.93969C15.4822 6.85636 15.6072 6.00636 15.3988 5.29803C15.3822 5.22303 15.3572 5.14803 15.3238 5.08136C16.8738 5.88136 17.9322 7.52303 17.9322 9.38969Z" stroke="#292D32" stroke-width="1.5" stroke-linecap="round" stroke-linejoin="round"/>
</svg>
