<svg width="37" height="37" viewBox="0 0 37 37" fill="none" xmlns="http://www.w3.org/2000/svg">
<path d="M18.1342 8.9716C18.1792 7.61411 18.5512 5.61611 19.8517 4.30361C21.0592 3.08411 22.5292 2.49011 23.4442 2.21861C23.5248 2.19337 23.6103 2.18812 23.6933 2.20331C23.7764 2.2185 23.8545 2.25368 23.921 2.30579C23.9874 2.35791 24.0402 2.42541 24.0747 2.50247C24.1092 2.57953 24.1245 2.66383 24.1192 2.74811C24.0592 4.04711 23.7172 5.98511 22.8352 7.0231C22.0042 8.0011 20.6692 9.2971 18.7117 9.51611C18.6367 9.52422 18.5608 9.51597 18.4893 9.49195C18.4178 9.46792 18.3523 9.42868 18.2974 9.37693C18.2426 9.32518 18.1995 9.26215 18.1714 9.19218C18.1432 9.1222 18.1305 9.04695 18.1342 8.9716Z" fill="#FDF7ED"/>
<path d="M21.4851 33.8024C22.4256 34.1624 23.3751 34.5254 24.2346 34.5254C26.0751 34.5254 31.4316 30.2804 31.6236 25.8734C31.6251 25.7624 31.5958 25.6531 31.5388 25.5578C31.4819 25.4624 31.3996 25.3847 31.3011 25.3334C29.9391 24.5714 27.7131 22.6724 27.6366 19.9109C27.5466 16.6919 29.1621 14.1359 30.3846 13.0784C30.6606 12.8399 30.7551 12.4199 30.5091 12.1529C29.3961 10.9379 27.1581 9.2654 25.1151 9.3059C23.6301 9.3359 22.2906 9.8909 21.1401 10.3649C20.2596 10.7294 19.4901 11.0474 18.8511 11.0474C18.2466 11.0474 17.5206 10.7324 16.6866 10.3679C15.5646 9.8789 14.2476 9.3059 12.7716 9.3059C10.0356 9.3059 4.62964 11.5754 4.62964 20.3339C4.62964 24.9764 9.42214 34.6484 13.4676 34.5254C14.3406 34.5254 15.2736 34.1654 16.2006 33.8054C17.1126 33.4514 18.0171 33.1004 18.8511 33.1004C19.6566 33.1004 20.5656 33.4499 21.4851 33.8024Z" fill="#FDF7ED"/>
</svg>
