<svg width="17" height="17" viewBox="0 0 17 17" fill="none" xmlns="http://www.w3.org/2000/svg">
<path d="M5.97998 4.82312C5.70665 4.82312 5.47998 4.59645 5.47998 4.32312L5.47998 2.32312C5.47998 2.04979 5.70665 1.82312 5.97998 1.82312C6.25331 1.82312 6.47998 2.04979 6.47998 2.32312L6.47998 4.32312C6.47998 4.59645 6.25331 4.82312 5.97998 4.82312Z" fill="#4212A1"/>
<path d="M11.3135 4.82312C11.0401 4.82312 10.8135 4.59645 10.8135 4.32312L10.8135 2.32312C10.8135 2.04979 11.0401 1.82312 11.3135 1.82312C11.5868 1.82312 11.8135 2.04979 11.8135 2.32312L11.8135 4.32312C11.8135 4.59645 11.5868 4.82312 11.3135 4.82312Z" fill="#4212A1"/>
<path d="M6.3134 10.6564C6.14006 10.6564 5.96672 10.5831 5.84006 10.4631C5.81339 10.4297 5.78006 10.3964 5.76006 10.3631C5.73339 10.3231 5.7134 10.2831 5.70006 10.2431C5.68006 10.2031 5.66673 10.1631 5.66006 10.1231C5.6534 10.0764 5.64673 10.0297 5.64673 9.98975C5.64673 9.81642 5.72006 9.64309 5.84006 9.51642C6.08672 9.26975 6.5334 9.26975 6.78673 9.51642C6.90673 9.64309 6.98006 9.81642 6.98006 9.98975C6.98006 10.0297 6.97339 10.0764 6.96673 10.1231C6.96006 10.1631 6.94673 10.2031 6.92673 10.2431C6.91339 10.2831 6.8934 10.3231 6.86673 10.3631C6.84006 10.3964 6.8134 10.4297 6.78673 10.4631C6.66007 10.5831 6.48673 10.6564 6.3134 10.6564Z" fill="#4212A1"/>
<path d="M8.64665 10.6565C8.55998 10.6565 8.47331 10.6365 8.39331 10.6031C8.30664 10.5698 8.23331 10.5231 8.17331 10.4631C8.14664 10.4298 8.11331 10.3964 8.09331 10.3631C8.06665 10.3231 8.04665 10.2831 8.03332 10.2431C8.01332 10.2031 7.99998 10.1631 7.99332 10.1231C7.98665 10.0765 7.97998 10.0298 7.97998 9.98978C7.97998 9.81645 8.05331 9.64312 8.17331 9.51646C8.23331 9.45646 8.30664 9.40977 8.39331 9.37644C8.63331 9.26977 8.93332 9.32979 9.11999 9.51646C9.23999 9.64312 9.31331 9.81645 9.31331 9.98978C9.31331 10.0298 9.30664 10.0765 9.29998 10.1231C9.29331 10.1631 9.27998 10.2031 9.25998 10.2431C9.24665 10.2831 9.22665 10.3231 9.19998 10.3631C9.17332 10.3964 9.14665 10.4298 9.11999 10.4631C8.99332 10.5831 8.81998 10.6565 8.64665 10.6565Z" fill="#4212A1"/>
<path d="M6.3134 12.9897C6.1334 12.9897 5.96672 12.9164 5.84006 12.7964C5.72006 12.6697 5.64673 12.4964 5.64673 12.323C5.64673 12.1497 5.72006 11.9764 5.84006 11.8497C5.87339 11.8231 5.90673 11.7897 5.94006 11.7697C5.98006 11.7431 6.02006 11.723 6.06006 11.7097C6.10006 11.6897 6.14006 11.6764 6.18006 11.6697C6.3134 11.643 6.44673 11.6564 6.56673 11.7097C6.6534 11.743 6.72007 11.7897 6.78673 11.8497C6.90673 11.9764 6.98006 12.1497 6.98006 12.323C6.98006 12.4964 6.90673 12.6697 6.78673 12.7964C6.72007 12.8564 6.6534 12.9031 6.56673 12.9364C6.48673 12.9697 6.40006 12.9897 6.3134 12.9897Z" fill="#4212A1"/>
<path d="M14.3133 7.54968L2.97998 7.54968C2.70665 7.54968 2.47998 7.32302 2.47998 7.04968C2.47998 6.77635 2.70665 6.54968 2.97998 6.54968L14.3133 6.54968C14.5866 6.54968 14.8133 6.77635 14.8133 7.04968C14.8133 7.32302 14.5866 7.54968 14.3133 7.54968Z" fill="#4212A1"/>
<path d="M12.6466 16.8231C10.9 16.8231 9.47998 15.4031 9.47998 13.6564C9.47998 11.9097 10.9 10.4897 12.6466 10.4897C14.3933 10.4897 15.8133 11.9097 15.8133 13.6564C15.8133 15.4031 14.3933 16.8231 12.6466 16.8231ZM12.6466 11.4897C11.4533 11.4897 10.48 12.4631 10.48 13.6564C10.48 14.8497 11.4533 15.8231 12.6466 15.8231C13.84 15.8231 14.8133 14.8497 14.8133 13.6564C14.8133 12.4631 13.84 11.4897 12.6466 11.4897Z" fill="#4212A1"/>
<path d="M13.3601 14.8964C13.2334 14.8964 13.1067 14.8498 13.0067 14.7498L11.6001 13.3431C11.4067 13.1498 11.4067 12.8298 11.6001 12.6365C11.7934 12.4431 12.1134 12.4431 12.3068 12.6365L13.7134 14.0431C13.9068 14.2364 13.9068 14.5565 13.7134 14.7498C13.6134 14.8498 13.4868 14.8964 13.3601 14.8964Z" fill="#4212A1"/>
<path d="M11.9334 14.9164C11.8067 14.9164 11.6801 14.8697 11.5801 14.7697C11.3867 14.5764 11.3867 14.2563 11.5801 14.063L12.9867 12.6564C13.1801 12.463 13.5001 12.463 13.6934 12.6564C13.8867 12.8497 13.8867 13.1697 13.6934 13.363L12.2867 14.7697C12.1867 14.863 12.0601 14.9164 11.9334 14.9164Z" fill="#4212A1"/>
<path d="M10.8934 16.1565L5.98006 16.1565C3.54673 16.1565 2.14673 14.7565 2.14673 12.3231L2.14673 6.65645C2.14673 4.22312 3.54673 2.82312 5.98006 2.82312L11.3134 2.82312C13.7467 2.82312 15.1467 4.22312 15.1467 6.65645L15.1467 11.8964C15.1467 12.1031 15.0201 12.2898 14.8201 12.3631C14.6267 12.4365 14.4067 12.3831 14.2667 12.2231C13.8534 11.7565 13.2601 11.4898 12.6401 11.4898C11.4467 11.4898 10.4734 12.4631 10.4734 13.6565C10.4734 14.0498 10.5801 14.4365 10.7867 14.7698C10.9001 14.9698 11.0467 15.1364 11.2067 15.2764C11.3667 15.4098 11.4267 15.6298 11.3534 15.8298C11.2934 16.0231 11.1067 16.1565 10.8934 16.1565ZM5.98006 3.82312C4.0734 3.82312 3.14673 4.74979 3.14673 6.65645L3.14673 12.3231C3.14673 14.2298 4.0734 15.1565 5.98006 15.1565L9.86007 15.1565C9.6134 14.7031 9.48006 14.1898 9.48006 13.6565C9.48006 11.9098 10.9001 10.4898 12.6467 10.4898C13.1734 10.4898 13.6934 10.6231 14.1467 10.8698L14.1467 6.65645C14.1467 4.74979 13.2201 3.82312 11.3134 3.82312L5.98006 3.82312Z" fill="#4212A1"/>
</svg>
