<svg width="16" height="16" viewBox="0 0 16 16" fill="none" xmlns="http://www.w3.org/2000/svg">
<path d="M14.6666 15.1667H1.33331C1.05998 15.1667 0.833313 14.9401 0.833313 14.6667C0.833313 14.3934 1.05998 14.1667 1.33331 14.1667H14.6666C14.94 14.1667 15.1666 14.3934 15.1666 14.6667C15.1666 14.9401 14.94 15.1667 14.6666 15.1667Z" fill="white"/>
<path d="M2.4668 14.6666H1.4668L1.50013 6.64656C1.50013 6.07989 1.76013 5.55324 2.2068 5.20657L6.87346 1.57323C7.53346 1.0599 8.46013 1.0599 9.1268 1.57323L13.7935 5.1999C14.2335 5.54657 14.5001 6.08656 14.5001 6.64656V14.6666H13.5001V6.65323C13.5001 6.3999 13.3801 6.15324 13.1801 5.99324L8.51346 2.36657C8.21346 2.13323 7.79346 2.13323 7.4868 2.36657L2.82013 5.99991C2.62013 6.15324 2.50013 6.3999 2.50013 6.65323L2.4668 14.6666Z" fill="white"/>
<path d="M9.66665 15.1666H6.33331C6.05998 15.1666 5.83331 14.9399 5.83331 14.6666V12.3333C5.83331 11.5066 6.50665 10.8333 7.33331 10.8333H8.66665C9.49331 10.8333 10.1666 11.5066 10.1666 12.3333V14.6666C10.1666 14.9399 9.93998 15.1666 9.66665 15.1666ZM6.83331 14.1666H9.16665V12.3333C9.16665 12.0599 8.93998 11.8333 8.66665 11.8333H7.33331C7.05998 11.8333 6.83331 12.0599 6.83331 12.3333V14.1666Z" fill="white"/>
<path d="M11 9.66659H9.66667C9.02667 9.66659 8.5 9.13992 8.5 8.49992V7.49992C8.5 6.85992 9.02667 6.33325 9.66667 6.33325H11C11.64 6.33325 12.1667 6.85992 12.1667 7.49992V8.49992C12.1667 9.13992 11.64 9.66659 11 9.66659ZM9.66667 7.33325C9.57333 7.33325 9.5 7.40659 9.5 7.49992V8.49992C9.5 8.59325 9.57333 8.66659 9.66667 8.66659H11C11.0933 8.66659 11.1667 8.59325 11.1667 8.49992V7.49992C11.1667 7.40659 11.0933 7.33325 11 7.33325H9.66667Z" fill="white"/>
<path d="M12.6667 5.16675C12.3934 5.16675 12.1667 4.94675 12.1667 4.67342L12.1534 3.16675H9.72003C9.4467 3.16675 9.22003 2.94008 9.22003 2.66675C9.22003 2.39341 9.4467 2.16675 9.72003 2.16675H12.6534C12.9267 2.16675 13.1534 2.38674 13.1534 2.66007L13.1734 4.66007C13.1667 4.94007 12.9467 5.16675 12.6667 5.16675C12.6734 5.16675 12.6667 5.16675 12.6667 5.16675Z" fill="white"/>
</svg>
