<svg width="17" height="17" viewBox="0 0 17 17" fill="none" xmlns="http://www.w3.org/2000/svg">
<path d="M13.8986 14.1236C13.7653 14.1236 13.6386 14.0703 13.5453 13.977L9.29197 9.72361C9.09864 9.53028 9.09864 9.21028 9.29197 9.01695L14.4453 3.86362C14.572 3.73695 14.7653 3.69029 14.9386 3.73695C15.112 3.79029 15.2453 3.93029 15.2853 4.10362C15.412 4.67029 15.4786 5.30362 15.4786 6.03695L15.4786 10.0369C15.4786 11.8836 15.092 13.1303 14.252 13.977C14.1586 14.0703 14.0186 14.0903 13.8986 14.1236ZM10.352 9.37028L13.8586 12.8769C14.2786 12.2303 14.4786 11.3103 14.4786 10.0369L14.4786 6.03695C14.4786 5.76362 14.472 5.51029 14.452 5.27029L10.352 9.37028Z" fill="#4212A1"/>
<path d="M4.49192 15.0237C4.45192 15.0237 4.4186 15.017 4.3786 15.0104C2.17193 14.5037 1.14526 12.9237 1.14526 10.037L1.14526 6.03703C1.14526 2.41703 2.69193 0.870361 6.31193 0.870361L10.3119 0.870361C13.1986 0.870361 14.7786 1.89703 15.2853 4.1037C15.3253 4.27037 15.2719 4.45036 15.1519 4.57036L4.84526 14.877C4.75192 14.9704 4.62526 15.0237 4.49192 15.0237ZM6.31193 1.87036C3.2386 1.87036 2.14526 2.96369 2.14526 6.03703L2.14526 10.037C2.14526 12.3504 2.78527 13.5104 4.3386 13.9704L14.2386 4.07036C13.7853 2.51703 12.6186 1.87702 10.3053 1.87702L6.31193 1.87702L6.31193 1.87036Z" fill="#4212A1"/>
<path d="M10.312 15.2036L6.31202 15.2036C5.57868 15.2036 4.95202 15.1436 4.37869 15.0103C4.19869 14.9703 4.05868 14.8369 4.01201 14.6636C3.95868 14.4903 4.01201 14.3036 4.13868 14.1703L9.29202 9.01695C9.48535 8.82361 9.80535 8.82361 9.99868 9.01695L14.252 13.2703C14.3454 13.3636 14.3987 13.4903 14.3987 13.6236C14.3987 13.757 14.3454 13.8836 14.252 13.9769C13.4054 14.8169 12.1587 15.2036 10.312 15.2036ZM5.54535 14.177C5.78535 14.197 6.03868 14.2036 6.31202 14.2036L10.312 14.2036C11.592 14.2036 12.5054 14.0036 13.152 13.5836L9.64535 10.0769L5.54535 14.177Z" fill="#4212A1"/>
<path d="M6.39205 8.91031C5.97205 8.91031 5.55205 8.75698 5.21871 8.44364C4.15871 7.43698 3.73206 6.33032 3.9854 5.25032C4.23873 4.14365 5.20539 3.39697 6.39205 3.39697C7.57872 3.39697 8.5454 4.14365 8.79873 5.25032C9.0454 6.33698 8.61872 7.43698 7.55872 8.44364C7.23205 8.75031 6.81205 8.91031 6.39205 8.91031ZM4.95872 5.47031C4.74539 6.37697 5.35872 7.19031 5.91205 7.71698C6.18539 7.97698 6.60539 7.97698 6.87205 7.71698C7.41872 7.19698 8.03205 6.38364 7.82538 5.47031C7.64538 4.67697 6.93872 4.39031 6.39205 4.39031C5.84539 4.39031 5.14539 4.67697 4.95872 5.47031Z" fill="#4212A1"/>
<path d="M6.41203 6.36361C6.04536 6.36361 5.74536 6.06361 5.74536 5.69694C5.74536 5.33027 6.03869 5.03027 6.41203 5.03027L6.4187 5.03027C6.78537 5.03027 7.08537 5.33027 7.08537 5.69694C7.08537 6.06361 6.77869 6.36361 6.41203 6.36361Z" fill="#4212A1"/>
</svg>
