<svg width="37" height="37" viewBox="0 0 37 37" fill="none" xmlns="http://www.w3.org/2000/svg">
<g clip-path="url(#clip0_1142_8148)">
<path d="M3.89 0.705744C4.07284 0.601151 4.28 0.54653 4.49064 0.547373C4.70129 0.548215 4.908 0.604491 5.09 0.710544L23.9132 11.6905L18.0884 16.9321L3.2876 3.61214L3.2876 1.74734C3.28742 1.53606 3.34304 1.32848 3.44881 1.14558C3.55459 0.962689 3.70678 0.810962 3.89 0.705744ZM3.2876 6.84254L3.2876 30.2521L16.2956 18.5473L3.2876 6.84254ZM3.2876 33.4825L3.2876 35.3473C3.28754 35.5585 3.34319 35.7659 3.44893 35.9487C3.55467 36.1314 3.70676 36.283 3.88985 36.3882C4.07293 36.4934 4.28053 36.5484 4.49167 36.5477C4.70282 36.547 4.91003 36.4906 5.0924 36.3841L23.9132 25.4041L18.0884 20.1625L3.2876 33.4825ZM26.09 24.1345L33.89 19.5841C34.0713 19.4785 34.2217 19.3272 34.3262 19.1452C34.4308 18.9633 34.4858 18.7572 34.4858 18.5473C34.4858 18.3375 34.4308 18.1314 34.3262 17.9494C34.2217 17.7675 34.0713 17.6162 33.89 17.5105L26.09 12.9601L19.8812 18.5473L26.09 24.1345Z" fill="#FDF7ED"/>
</g>
<defs>
<clipPath id="clip0_1142_8148">
<rect width="36" height="36" fill="white" transform="translate(0.887695 0.547363)"/>
</clipPath>
</defs>
</svg>
