<svg width="87" height="24" viewBox="0 0 87 24" fill="none" xmlns="http://www.w3.org/2000/svg">
<g clip-path="url(#clip0_409_325)">
<path d="M9.81334 3.97266V10.7424H3.49819V3.97266H0.5V20.1327H3.49819V13.5828H9.81334V20.1327H12.8115V3.97266H9.81334Z" fill="#33475B"/>
<path d="M22.4069 14.9089C22.4069 15.5566 22.1455 16.1777 21.6804 16.6356C21.2152 17.0936 20.5843 17.3508 19.9265 17.3508C19.2687 17.3508 18.6378 17.0936 18.1726 16.6356C17.7074 16.1777 17.4461 15.5566 17.4461 14.9089V7.9873H14.6022V14.9089C14.6022 16.2978 15.1626 17.6298 16.1601 18.6119C17.1577 19.5939 18.5106 20.1457 19.9214 20.1457C21.3321 20.1457 22.685 19.5939 23.6826 18.6119C24.6801 17.6298 25.2405 16.2978 25.2405 14.9089V7.9873H22.4069V14.9089Z" fill="#33475B"/>
<path d="M43.4781 8.70035C43.4781 7.28161 44.4315 6.83183 45.4759 6.83183C46.3176 6.83183 47.4297 7.46238 48.1568 8.22743L50.0195 6.06678C49.0896 4.82882 47.2034 3.97266 45.6595 3.97266C42.5747 3.97266 40.3433 5.75151 40.3433 8.70035C40.3433 14.1714 47.1359 12.4359 47.1359 15.4976C47.1359 16.442 46.2045 17.2764 45.1381 17.2764C43.4561 17.2764 42.9111 16.4665 42.1384 15.6104L40.0715 17.7262C41.3936 19.3243 43.0242 20.1356 44.9779 20.1356C47.9086 20.1356 50.2663 18.3351 50.2663 15.5207C50.2663 9.44659 43.4737 11.3339 43.4737 8.70035" fill="#33475B"/>
<path d="M85.4995 17.5512C83.819 17.5512 83.3416 16.8353 83.3416 15.7391V10.887H85.9535V8.42844H83.3416V5.18457L80.458 6.45869V16.3421C80.458 18.8701 82.2296 20.1443 84.6593 20.1443C85.0403 20.1511 85.4212 20.1211 85.7963 20.0546L86.4999 17.5049C86.1826 17.5266 85.8183 17.5483 85.4995 17.5483" fill="#33475B"/>
<path d="M33.2319 8.06838C31.8231 8.06838 30.8404 8.47042 29.8899 9.38877V4.06958H27.0416V13.9285C27.0416 17.6192 29.7518 20.1472 32.797 20.1472C36.1757 20.1472 39.1474 17.5744 39.1474 14.1092C39.1474 10.6875 36.4122 8.06982 33.2319 8.06982V8.06838ZM33.2142 17.3256C32.575 17.3256 31.9502 17.139 31.4188 16.7894C30.8873 16.4398 30.4731 15.9429 30.2285 15.3615C29.9839 14.7801 29.9199 14.1404 30.0446 13.5232C30.1693 12.906 30.4771 12.3391 30.929 11.8942C31.381 11.4492 31.9568 11.1462 32.5837 11.0234C33.2106 10.9006 33.8604 10.9636 34.451 11.2044C35.0415 11.4453 35.5462 11.8531 35.9013 12.3763C36.2564 12.8995 36.446 13.5147 36.446 14.1439C36.446 14.9878 36.1055 15.797 35.4994 16.3937C34.8933 16.9904 34.0713 17.3256 33.2142 17.3256Z" fill="#33475B"/>
<path d="M64.1596 13.9618C64.1596 10.4909 61.1938 7.92383 57.8092 7.92383C54.764 7.92383 52.0538 10.4518 52.0538 14.1426V24.0072H54.9021V18.6808C55.8511 19.5977 56.8353 20.0012 58.2426 20.0012C61.4229 20.0012 64.1582 17.385 64.1582 13.9618H64.1596ZM61.4626 13.9271C61.4626 14.5564 61.273 15.1715 60.9179 15.6947C60.5628 16.2179 60.0581 16.6258 59.4676 16.8666C58.877 17.1074 58.2272 17.1704 57.6003 17.0476C56.9734 16.9249 56.3976 16.6218 55.9456 16.1769C55.4937 15.7319 55.1859 15.165 55.0612 14.5478C54.9365 13.9306 55.0005 13.2909 55.2451 12.7095C55.4897 12.1281 55.9039 11.6312 56.4354 11.2816C56.9668 10.932 57.5916 10.7454 58.2308 10.7454C59.0879 10.7454 59.9099 11.0806 60.516 11.6773C61.1221 12.274 61.4626 13.0832 61.4626 13.9271Z" fill="#33475B"/>
<path d="M73.3615 7.78787V4.97063C73.7397 4.79667 74.0599 4.52054 74.2848 4.17438C74.5098 3.82823 74.6302 3.42628 74.6322 3.01535V2.95027C74.6322 2.37493 74.4 1.82315 73.9868 1.41632C73.5736 1.00949 73.0131 0.780939 72.4287 0.780939H72.3626C71.7782 0.780939 71.2177 1.00949 70.8045 1.41632C70.3913 1.82315 70.1591 2.37493 70.1591 2.95027V3.01535C70.1611 3.42628 70.2815 3.82823 70.5065 4.17438C70.7314 4.52054 71.0516 4.79667 71.4298 4.97063V7.78787C70.3429 7.95157 69.3192 8.3951 68.4625 9.07356L60.6152 3.05584C60.6707 2.8574 60.7003 2.6528 60.7033 2.44698C60.7042 1.96352 60.5594 1.49067 60.2873 1.08823C60.0151 0.685791 59.6279 0.371847 59.1745 0.186108C58.7211 0.000369021 58.222 -0.0488204 57.7402 0.0447614C57.2584 0.138343 56.8156 0.370492 56.4679 0.711844C56.1201 1.0532 55.883 1.48842 55.7865 1.96245C55.6901 2.43649 55.7386 2.92805 55.9259 3.37496C56.1132 3.82186 56.4309 4.20404 56.8389 4.47314C57.2469 4.74224 57.7267 4.88618 58.2178 4.88675C58.6472 4.88486 59.0686 4.77217 59.44 4.55991L67.1683 10.4793C66.4739 11.5118 66.1116 12.7264 66.1286 13.9647C66.1456 15.203 66.5412 16.4075 67.2638 17.4211L64.9134 19.7351C64.7233 19.6753 64.5253 19.6436 64.3258 19.6411C63.9227 19.6414 63.5287 19.7593 63.1936 19.98C62.8585 20.2007 62.5974 20.5142 62.4433 20.8809C62.2891 21.2477 62.2489 21.6511 62.3276 22.0404C62.4063 22.4296 62.6005 22.7872 62.8855 23.0678C63.1706 23.3485 63.5338 23.5396 63.9291 23.6171C64.3245 23.6946 64.7344 23.655 65.1069 23.5033C65.4794 23.3515 65.7978 23.0944 66.022 22.7646C66.2461 22.4347 66.3659 22.0468 66.3662 21.6499C66.3637 21.4534 66.3315 21.2585 66.2707 21.0714L68.5961 18.782C69.3544 19.3565 70.2361 19.7525 71.1739 19.9397C72.1116 20.1268 73.0803 20.1003 74.006 19.8619C74.9316 19.6236 75.7896 19.1799 76.5142 18.5647C77.2388 17.9495 77.8107 17.1793 78.1862 16.3129C78.5618 15.4465 78.7309 14.507 78.6807 13.5664C78.6305 12.6257 78.3623 11.7088 77.8966 10.886C77.4309 10.0631 76.7801 9.35614 75.994 8.81913C75.2079 8.28212 74.3074 7.92936 73.3615 7.78787ZM72.3979 17.0523C71.7618 17.0518 71.1401 16.8656 70.6115 16.5173C70.0829 16.169 69.671 15.6742 69.4279 15.0955C69.1848 14.5168 69.1215 13.8801 69.2458 13.266C69.3701 12.6518 69.6766 12.0878 70.1265 11.6451C70.5764 11.2023 71.1495 10.9009 71.7734 10.7787C72.3972 10.6566 73.0439 10.7193 73.6316 10.9589C74.2193 11.1984 74.7216 11.6042 75.0752 12.1248C75.4287 12.6454 75.6176 13.2574 75.6179 13.8837C75.6179 14.7237 75.2789 15.5293 74.6756 16.1232C74.0723 16.7172 73.254 17.0509 72.4008 17.0509" fill="#FF7A59"/>
</g>
<defs>
<clipPath id="clip0_409_325">
<rect width="86" height="24" fill="white" transform="translate(0.5)"/>
</clipPath>
</defs>
</svg>
