<svg width="113" height="26" viewBox="0 0 113 26" fill="none" xmlns="http://www.w3.org/2000/svg">
<g clip-path="url(#clip0_409_328)">
<path d="M40.3578 9.24778V10.7213H40.4032C40.9382 9.93235 41.8264 9.00328 43.7949 9.00328C45.3265 9.00328 46.5013 9.77588 47.0048 10.9429H47.0503C47.4804 10.3529 47.9734 9.90628 48.5259 9.59006C49.1797 9.21518 49.907 9.00002 50.8231 9.00002C52.8966 9.00002 54.7323 10.3366 54.7323 13.7073V20.1H51.5714V14.1539C51.5714 12.4457 50.949 11.458 49.6553 11.458C48.7077 11.458 48.0188 12.0513 47.7566 12.7815C47.6657 13.0325 47.6237 13.3748 47.6237 13.6617V20.1033H44.4628V13.9127C44.4628 12.462 43.8649 11.4547 42.5886 11.4547C41.5676 11.4547 40.9277 12.2045 40.6655 12.8467C40.5536 13.1205 40.5186 13.4368 40.5186 13.7334V20.1H37.3542V9.24778H40.3578ZM71.0475 9.24778V11.295H71.1349C71.7153 9.73024 73.093 9.00328 74.3028 9.00328C74.607 9.00328 74.7748 9.0261 75.0196 9.07174V11.9144C74.7294 11.8753 74.4602 11.8361 74.0825 11.8361C72.7119 11.8361 71.7573 12.5794 71.516 13.7432C71.4636 13.9844 71.4461 14.2452 71.4461 14.5451V20.1033H68.2012V9.24778H71.0475ZM79.4253 5.6521V9.06848H82.1667V11.8329H79.4253V15.911C79.4253 17.2313 79.7855 17.8702 80.8554 17.8702C81.359 17.8702 81.7296 17.8115 82.0513 17.7366L82.0932 20.0283C81.6632 20.1782 80.747 20.3412 79.817 20.3412C78.7225 20.3412 77.8099 19.9859 77.2539 19.435C76.6176 18.8058 76.3239 17.7757 76.3239 16.3087V5.6521H79.4253ZM35.1513 20.1H32.0044V5.6521H35.1513V20.1ZM26.7595 16.224C26.7595 16.4228 26.742 16.6315 26.6826 16.8108C26.4378 17.5638 25.6021 18.1995 24.5601 18.1995C23.6895 18.1995 22.9971 17.7398 22.9971 16.7651C22.9971 15.2753 24.7594 14.8613 26.763 14.8711V16.224H26.7595ZM29.9029 13.6258C29.9029 11.1646 28.777 9.00328 24.9692 9.00328C23.0146 9.00328 21.4621 9.51509 20.616 9.97147L21.2349 11.947C22.0076 11.4906 23.2419 11.1157 24.4098 11.1157C26.3434 11.1124 26.6581 12.1361 26.6581 12.7913V12.9478C22.4447 12.9412 19.7838 14.3006 19.7838 17.0715C19.7838 18.7634 21.137 20.3478 23.4937 20.3478C24.9448 20.3478 26.1546 19.8099 26.8819 18.946H26.9518C26.9518 18.946 27.4343 20.8204 30.0848 20.1033C29.9449 19.3209 29.8994 18.4896 29.8994 17.4888V13.6258H29.9029ZM3.97562 5.6521C4.30081 7.181 5.22391 11.621 5.22391 11.621C5.61203 13.4465 5.96869 15.3601 6.23793 16.8727H6.28688C6.54912 15.2656 6.96172 13.7432 7.4023 11.859L8.95828 5.6521H12.4024L13.857 12.0187C14.2382 13.7888 14.5424 15.1547 14.7836 16.801H14.8291C15.0913 15.1384 15.434 13.7171 15.8081 11.8981L17.2068 5.6521H20.5111L16.4165 20.1C13.8081 20.6314 12.808 19.6534 12.4514 18.1017C12.0947 16.5467 11.3954 13.59 11.3954 13.59C11.0353 11.9698 10.7555 10.8288 10.5597 9.16628H10.5108C10.231 10.8125 9.93733 11.9665 9.50375 13.5867L7.78692 20.1033C5.12251 20.5988 4.19941 19.8653 3.6889 17.8735C3.24833 16.1686 0.5 5.65536 0.5 5.65536H3.97562V5.6521ZM62.9563 16.224C62.9563 16.4228 62.9389 16.6315 62.8794 16.8108C62.6346 17.5638 61.799 18.1995 60.757 18.1995C59.8863 18.1995 59.194 17.7398 59.194 16.7651C59.194 15.2753 60.9563 14.8613 62.9598 14.8711V16.224H62.9563ZM66.0998 13.6258C66.0998 11.1646 64.9739 9.00328 61.1661 9.00328C59.2115 9.00328 57.659 9.51509 56.8128 9.97147L57.4317 11.947C58.2044 11.4906 59.4387 11.1157 60.6066 11.1157C62.5367 11.1124 62.8549 12.1361 62.8549 12.7913V12.9478C58.645 12.9412 55.9841 14.3006 55.9841 17.0715C55.9841 18.7634 57.3408 20.3478 59.694 20.3478C61.1416 20.3478 62.3549 19.8099 63.0787 18.946H63.1521C63.1521 18.946 63.6347 20.8204 66.2851 20.1033C66.1452 19.3209 66.0998 18.4896 66.0998 17.4888V13.6258Z" fill="#041E42"/>
<path d="M94.9233 15.1241C95.2335 15.6517 95.2126 16.2406 94.8815 16.5096L89.1585 20.4276C88.5625 20.7646 87.6703 20.3561 87.1649 19.5017C86.656 18.6439 86.7467 17.6874 87.3427 17.3504L93.6791 14.4705C94.0764 14.3208 94.6131 14.5965 94.9233 15.1241ZM102.455 15.1241C102.769 14.5965 103.302 14.3242 103.7 14.4671L110.039 17.3469C110.635 17.6839 110.723 18.6405 110.217 19.4983C109.708 20.3527 108.813 20.7578 108.22 20.4242L102.497 16.5062C102.169 16.2406 102.145 15.6483 102.455 15.1241ZM98.6875 17.2482C99.3114 17.2482 99.8238 17.5614 99.8935 17.9733L100.51 24.7745C100.51 25.4485 99.7053 26 98.691 26C97.6803 26 96.8717 25.4485 96.8717 24.7745L97.4851 17.9733C97.5548 17.5614 98.0671 17.2482 98.6875 17.2482ZM102.497 9.49385L108.22 5.5724C108.813 5.2354 109.708 5.64048 110.217 6.4983C110.723 7.35611 110.635 8.31265 110.039 8.64965L103.7 11.5329C103.302 11.6758 102.765 11.4035 102.455 10.8759C102.145 10.3483 102.169 9.75936 102.497 9.49385ZM93.6791 11.5329L87.3427 8.64965C86.7502 8.31265 86.6595 7.35611 87.1649 6.4983C87.6703 5.64048 88.566 5.2354 89.1585 5.5724L94.8815 9.49385C95.2126 9.75596 95.2335 10.3483 94.9233 10.8759C94.6131 11.4035 94.0764 11.6758 93.6791 11.5329ZM97.4851 8.02671L96.8717 1.22545C96.8717 0.551453 97.6768 0 98.691 0C99.7053 0 100.51 0.551453 100.51 1.22545L99.8935 8.02671C99.8238 8.43519 99.3114 8.75177 98.6875 8.75177C98.0671 8.75177 97.5548 8.43519 97.4851 8.02671ZM111.765 20.4004V20.2302H111.921C111.974 20.2302 112.009 20.2642 112.009 20.3153C112.009 20.3629 111.974 20.4004 111.921 20.4004H111.765ZM111.636 20.7101C111.636 20.7272 111.65 20.7442 111.671 20.7442H111.737C111.754 20.7442 111.772 20.7272 111.772 20.7101V20.5161H111.88L111.967 20.7203C111.974 20.734 111.984 20.7442 111.998 20.7442H112.078C112.103 20.7442 112.12 20.7203 112.11 20.6965C112.078 20.6352 112.047 20.5706 112.016 20.5059C112.068 20.4889 112.148 20.4378 112.148 20.3153C112.148 20.1859 112.04 20.111 111.932 20.111H111.671C111.653 20.111 111.636 20.128 111.636 20.1451V20.7101ZM111.353 20.4276C111.353 20.1519 111.583 19.9272 111.866 19.9272C112.148 19.9272 112.378 20.1485 112.378 20.4276C112.378 20.7033 112.152 20.928 111.866 20.928C111.58 20.928 111.353 20.7033 111.353 20.4276ZM111.231 20.4276C111.231 20.768 111.514 21.0471 111.866 21.0471C112.214 21.0471 112.5 20.768 112.5 20.4276C112.5 20.0872 112.214 19.8081 111.866 19.8081C111.514 19.8081 111.231 20.0872 111.231 20.4276Z" fill="#FFC124"/>
</g>
<defs>
<clipPath id="clip0_409_328">
<rect width="112" height="26" fill="white" transform="translate(0.5)"/>
</clipPath>
</defs>
</svg>
