<svg width="20" height="21" viewBox="0 0 20 21" fill="none" xmlns="http://www.w3.org/2000/svg">
<path fill-rule="evenodd" clip-rule="evenodd" d="M10.0216 1.89453C5.43079 1.89453 1.70996 5.61536 1.70996 10.2062C1.70996 13.8779 4.09079 16.9937 7.39413 18.0937C7.80996 18.1687 7.95996 17.9129 7.95996 17.6929C7.95996 17.4954 7.95329 16.972 7.95079 16.2795C5.63829 16.7812 5.14996 15.1645 5.14996 15.1645C4.77329 14.2045 4.22746 13.9487 4.22746 13.9487C3.47329 13.4329 4.28496 13.4445 4.28496 13.4445C5.11996 13.5029 5.55746 14.3012 5.55746 14.3012C6.29913 15.5712 7.50413 15.2045 7.97579 14.992C8.05163 14.4545 8.26829 14.0879 8.50496 13.8804C6.65996 13.6712 4.71996 12.9579 4.71996 9.77203C4.71996 8.8662 5.04413 8.12286 5.57329 7.54286C5.48913 7.33203 5.20163 6.4862 5.65579 5.34286C5.65579 5.34286 6.35329 5.1187 7.94079 6.1937C8.61879 6.00926 9.31816 5.91511 10.0208 5.9137C10.7234 5.91484 11.4229 6.00899 12.1008 6.1937C13.6891 5.11786 14.3858 5.34286 14.3858 5.34286C14.84 6.4862 14.555 7.33203 14.4683 7.54286C15.0016 8.12286 15.3216 8.86536 15.3216 9.77203C15.3216 12.9662 13.38 13.6679 11.5283 13.8737C11.8241 14.1304 12.0908 14.637 12.0908 15.412C12.0908 16.5237 12.0808 17.4204 12.0808 17.6929C12.0808 17.9154 12.2291 18.1737 12.6533 18.092C15.955 16.9904 18.3333 13.877 18.3333 10.2062C18.3333 5.61536 14.6125 1.89453 10.0216 1.89453Z" fill="#22303E" fill-opacity="0.9"/>
</svg>
