<svg width="20" height="21" viewBox="0 0 20 21" fill="none" xmlns="http://www.w3.org/2000/svg">
<path d="M16.9025 8.85747H9.96334V11.7333H13.9567C13.585 13.5608 12.0292 14.6108 9.96334 14.6108C9.38529 14.6118 8.81273 14.4986 8.2785 14.2779C7.74426 14.0571 7.25887 13.733 6.85017 13.3242C6.44146 12.9154 6.11747 12.43 5.89679 11.8957C5.67611 11.3614 5.56308 10.7889 5.56418 10.2108C5.56319 9.63282 5.6763 9.06032 5.89703 8.52614C6.11776 7.99197 6.44176 7.50661 6.85046 7.09792C7.25916 6.68922 7.74451 6.36522 8.27869 6.14449C8.81287 5.92376 9.38536 5.81065 9.96334 5.81163C11.0125 5.81163 11.9608 6.18413 12.705 6.7933L14.8717 4.62747C13.5517 3.47663 11.8592 2.76663 9.96334 2.76663C8.98485 2.76377 8.01545 2.95439 7.11089 3.32752C6.20633 3.70066 5.38446 4.24894 4.69256 4.94085C4.00065 5.63275 3.45237 6.45461 3.07924 7.35917C2.7061 8.26373 2.51548 9.23314 2.51834 10.2116C2.51537 11.1902 2.70592 12.1596 3.07901 13.0642C3.4521 13.9688 4.00039 14.7907 4.69231 15.4827C5.38423 16.1746 6.20615 16.7229 7.11076 17.096C8.01537 17.4691 8.98482 17.6596 9.96334 17.6566C13.6858 17.6566 17.0708 14.9491 17.0708 10.2116C17.0708 9.77163 17.0033 9.29747 16.9025 8.85747Z" fill="#FF3E1D"/>
</svg>
