<svg width="20" height="21" viewBox="0 0 20 21" fill="none" xmlns="http://www.w3.org/2000/svg">
<path d="M16.3609 6.89215C16.3717 7.03798 16.3717 7.18298 16.3717 7.32798C16.3717 11.7655 12.9942 16.8788 6.82175 16.8788C4.92008 16.8788 3.15341 16.328 1.66675 15.3713C1.93675 15.4021 2.19675 15.413 2.47758 15.413C3.98841 15.4166 5.45645 14.9114 6.64508 13.9788C5.9446 13.9661 5.26556 13.735 4.70278 13.3178C4.14 12.9005 3.72157 12.3179 3.50591 11.6513C3.71341 11.6821 3.92175 11.703 4.14008 11.703C4.44091 11.703 4.74341 11.6613 5.02425 11.5888C4.26405 11.4353 3.58048 11.0233 3.08976 10.4227C2.59905 9.82217 2.33149 9.07019 2.33258 8.29465V8.25298C2.78008 8.50215 3.29925 8.65798 3.84925 8.67882C3.38849 8.37264 3.01068 7.95717 2.74953 7.46947C2.48838 6.98178 2.35201 6.43703 2.35258 5.88382C2.35258 5.26048 2.51841 4.68882 2.80925 4.19048C3.6527 5.228 4.70467 6.07678 5.89703 6.68186C7.08939 7.28694 8.39555 7.63483 9.73091 7.70298C9.67925 7.45298 9.64758 7.19382 9.64758 6.93382C9.64736 6.49295 9.73404 6.05636 9.90265 5.64902C10.0713 5.24167 10.3185 4.87154 10.6302 4.55981C10.942 4.24807 11.3121 4.00082 11.7194 3.83221C12.1268 3.6636 12.5634 3.57693 13.0042 3.57715C13.9709 3.57715 14.8434 3.98215 15.4567 4.63715C16.2082 4.49183 16.9289 4.2175 17.5867 3.82632C17.3363 4.602 16.8115 5.25974 16.1109 5.67632C16.7774 5.6003 17.4288 5.42503 18.0434 5.15632C17.5844 5.82556 17.0155 6.41244 16.3609 6.89215Z" fill="#1DA1F2"/>
</svg>
